<?xml version="1.0" encoding="utf-8"?>
<!-- Generator: Adobe Illustrator 16.0.0, SVG Export Plug-In . SVG Version: 6.00 Build 0)  -->
<!DOCTYPE svg PUBLIC "-//W3C//DTD SVG 1.1//EN" "http://www.w3.org/Graphics/SVG/1.1/DTD/svg11.dtd">
<svg version="1.1" id="Ebene_1" xmlns="http://www.w3.org/2000/svg" xmlns:xlink="http://www.w3.org/1999/xlink" x="0px" y="0px"
	 width="461.963px" height="298.828px" viewBox="0 0 461.963 298.828" enable-background="new 0 0 461.963 298.828"
	 xml:space="preserve">
<g>
	<path fill="#FFFFFF" d="M176.824,294.839c12.954-2.719,24.209-7.705,33.717-15.049c8.432-6.349,15.504-14.146,21.125-23.483
		c8.988-14.054,13.329-30.013,13.236-47.689c0-17.139-3.806-31.734-11.604-43.795c-7.706-12.059-19.22-20.761-34.452-26.382
		c10.053-5.066,17.691-10.78,22.746-17.045c9.259-11.074,13.792-25.648,13.792-43.986c0-17.657-4.431-32.89-13.599-45.583
		C206.552,11.05,180.723,0.534,144.354,0H0v298.828h134.652C149.806,298.828,163.848,297.469,176.824,294.839z M68.919,51.862H124.6
		c14.225,0,26.011,1.62,35.259,4.703c10.698,4.443,16.059,13.6,16.059,27.574c0,12.603-4.091,21.307-12.16,26.18
		c-8.081,4.998-18.598,7.458-31.552,7.458H68.919V51.862z M68.919,246.967v-79.695h64.193c12.795,0.09,22.746,1.813,29.83,5.076
		c12.693,5.805,19.028,16.502,19.028,32.006c0,18.405-6.517,30.828-19.562,37.356c-7.264,3.535-17.339,5.257-30.293,5.257H68.919
		L68.919,246.967z"/>
	<path fill="#FFFFFF" d="M284.165,270.542c21.852,17.497,46.873,26.383,75.435,26.383c34.545,0,61.382-10.427,80.515-31.28
		c12.33-13.147,19.221-25.932,20.762-38.715h-57.209c-3.267,6.256-7.076,11.242-11.428,14.688c-7.979,6.618-18.313,9.792-31.1,9.792
		c-12.057,0-22.303-2.631-30.826-7.979c-14.145-8.613-21.488-23.664-22.395-45.154h155.855c0.273-18.586-0.361-32.729-1.811-42.522
		c-2.631-16.863-8.252-31.551-17.139-44.335c-9.609-14.416-22.031-24.933-36.902-31.643c-14.959-6.698-31.73-9.974-50.319-9.974
		c-31.37,0-56.849,9.883-76.614,29.66c-19.673,19.754-29.467,48.224-29.467,85.309C251.522,224.393,262.402,252.95,284.165,270.542z
		 M324.147,128.102c7.98-8.069,19.04-12.229,33.456-12.229c13.237,0,24.3,3.9,33.187,11.605
		c8.887,7.708,13.873,18.939,14.959,33.809H309.28C311.364,147.323,316.26,136.262,324.147,128.102z"/>
	<rect x="296.948" y="12.332" fill="#FFFFFF" width="120.405" height="29.919"/>
</g>
</svg>
