<?xml version="1.0" encoding="utf-8"?>
<!-- Generator: Adobe Illustrator 16.0.0, SVG Export Plug-In . SVG Version: 6.00 Build 0)  -->
<!DOCTYPE svg PUBLIC "-//W3C//DTD SVG 1.1//EN" "http://www.w3.org/Graphics/SVG/1.1/DTD/svg11.dtd">
<svg version="1.1" id="Ebene_1" xmlns="http://www.w3.org/2000/svg" xmlns:xlink="http://www.w3.org/1999/xlink" x="0px" y="0px"
	 width="358.01px" height="358.01px" viewBox="0 0 358.01 358.01" enable-background="new 0 0 358.01 358.01" xml:space="preserve">
<g>
	<path fill="#969696" d="M254.675,0H103.334C46.264,0,0,46.265,0,103.335v151.341c0,57.07,46.264,103.334,103.334,103.334h151.341
		c57.069,0,103.335-46.264,103.335-103.334V103.335C358.01,46.265,311.744,0,254.675,0 M325.039,257.336
		c0,37.883-30.709,68.595-68.595,68.595H101.563c-37.883,0-68.594-30.712-68.594-68.595V102.453
		c0-37.884,30.711-68.595,68.594-68.595h154.882c37.886,0,68.595,30.711,68.595,68.595V257.336z"/>
	<path fill="#969696" d="M179.005,87.003c-51.303,0-92.893,41.589-92.893,92.893c0,51.303,41.59,92.891,92.893,92.891
		c51.302,0,92.892-41.588,92.892-92.891C271.897,128.592,230.307,87.003,179.005,87.003 M179.005,240.11
		c-33.257,0-60.216-26.961-60.216-60.217c0-33.257,26.959-60.216,60.216-60.216c33.256,0,60.216,26.959,60.216,60.216
		C239.221,213.149,212.261,240.11,179.005,240.11"/>
	<path fill="#969696" d="M274.994,61.829c-11.953,0-21.642,9.689-21.642,21.641c0,11.952,9.688,21.641,21.642,21.641
		c11.95,0,21.64-9.688,21.64-21.641C296.634,71.519,286.945,61.829,274.994,61.829"/>
</g>
</svg>
