<?xml version="1.0" encoding="utf-8"?>
<!-- Generator: Adobe Illustrator 16.0.0, SVG Export Plug-In . SVG Version: 6.00 Build 0)  -->
<!DOCTYPE svg PUBLIC "-//W3C//DTD SVG 1.1//EN" "http://www.w3.org/Graphics/SVG/1.1/DTD/svg11.dtd">
<svg version="1.1" id="Ebene_1" xmlns="http://www.w3.org/2000/svg" xmlns:xlink="http://www.w3.org/1999/xlink" x="0px" y="0px"
	 width="358.01px" height="358.01px" viewBox="0 0 358.01 358.01" enable-background="new 0 0 358.01 358.01" xml:space="preserve">
<g>
	<path fill="#FFFFFF" d="M254.675,0H103.334C46.264,0,0,46.265,0,103.335v151.341c0,57.07,46.264,103.334,103.334,103.334h151.341
		c57.07,0,103.335-46.264,103.335-103.334V103.335C358.01,46.265,311.745,0,254.675,0 M325.04,257.336
		c0,37.883-30.71,68.594-68.595,68.594H101.563c-37.883,0-68.594-30.711-68.594-68.594V102.453
		c0-37.884,30.711-68.595,68.594-68.595h154.882c37.885,0,68.595,30.711,68.595,68.595V257.336z"/>
	<path fill="#FFFFFF" d="M179.005,87.003c-51.303,0-92.892,41.589-92.892,92.892s41.589,92.891,92.892,92.891
		c51.302,0,92.892-41.588,92.892-92.891S230.307,87.003,179.005,87.003 M179.005,240.111c-33.257,0-60.216-26.961-60.216-60.217
		c0-33.257,26.959-60.216,60.216-60.216c33.256,0,60.216,26.959,60.216,60.216C239.221,213.15,212.261,240.111,179.005,240.111"/>
	<path fill="#FFFFFF" d="M274.994,61.829c-11.953,0-21.641,9.689-21.641,21.641c0,11.952,9.688,21.641,21.641,21.641
		c11.951,0,21.64-9.688,21.64-21.641C296.634,71.519,286.945,61.829,274.994,61.829"/>
</g>
</svg>
