<?xml version="1.0" encoding="utf-8"?>
<!-- Generator: Adobe Illustrator 16.0.0, SVG Export Plug-In . SVG Version: 6.00 Build 0)  -->
<!DOCTYPE svg PUBLIC "-//W3C//DTD SVG 1.1//EN" "http://www.w3.org/Graphics/SVG/1.1/DTD/svg11.dtd">
<svg version="1.1" id="Ebene_1" xmlns="http://www.w3.org/2000/svg" xmlns:xlink="http://www.w3.org/1999/xlink" x="0px" y="0px"
	 width="176px" height="123.985px" viewBox="0 0 176 123.985" enable-background="new 0 0 176 123.985" xml:space="preserve">
<path fill="#FFFFFF" d="M172.322,19.363c-2.024-7.622-7.988-13.624-15.561-15.661C143.037,0,88,0,88,0S32.963,0,19.238,3.702
	C11.665,5.739,5.701,11.741,3.677,19.363C0,33.177,0,62,0,62s0,28.822,3.677,42.637c2.024,7.622,7.988,13.624,15.561,15.662
	C32.963,124,88,124,88,124s55.037,0,68.762-3.701c7.572-2.038,13.536-8.04,15.561-15.662C176,90.822,176,62,176,62
	S176,33.177,172.322,19.363z M70,88.169V35.831l46,26.17L70,88.169z"/>
</svg>
