<?xml version="1.0" encoding="utf-8"?>
<!-- Generator: Adobe Illustrator 16.0.0, SVG Export Plug-In . SVG Version: 6.00 Build 0)  -->
<!DOCTYPE svg PUBLIC "-//W3C//DTD SVG 1.1//EN" "http://www.w3.org/Graphics/SVG/1.1/DTD/svg11.dtd">
<svg version="1.1" id="Ebene_1" xmlns="http://www.w3.org/2000/svg" xmlns:xlink="http://www.w3.org/1999/xlink" x="0px" y="0px"
	 width="1173px" height="371.89px" viewBox="0 0 1173 371.89" enable-background="new 0 0 1173 371.89" xml:space="preserve">
<g>
	<g>
		<defs>
			<rect id="SVGID_1_" x="1.933" y="1.781" width="1171.182" height="371.109"/>
		</defs>
		<clipPath id="SVGID_2_">
			<use xlink:href="#SVGID_1_"  overflow="visible"/>
		</clipPath>
		<g clip-path="url(#SVGID_2_)">
			
				<image overflow="visible" width="311" height="126" xlink:href="FEE2F050.jpg"  transform="matrix(4.3647 0 0 4.377 -54.9194 -52.0742)">
			</image>
		</g>
	</g>
	<polygon fill="#86BC25" points="1.933,1.781 1.933,372.89 1173.114,372.89 1173.114,1.781 1.933,1.781 	"/>
	<path fill="#FFFFFF" d="M427.495,256.253l11.181,45.856h11.18l8.961-35.063l8.321,35.063h10.923l11.69-45.856h-9.402l-7.433,34.37
		l-8.07-34.37h-11.114l-8.96,34.37l-7.112-34.37H427.495L427.495,256.253z M499.731,256.202v27.438c0,4.255,0.129,7.818,2.35,11.308
		c4.316,6.915,12.701,7.925,17.279,7.925c9.279,0,20.131-4.378,20.131-18.025v-28.645h-9.58v27.438c0,4.626-0.509,6.417-1.462,7.818
		c-2.544,3.935-7.312,3.987-8.899,3.987c-9.598,0-9.979-6.274-9.979-11.291v-27.952H499.731L499.731,256.202z M553.795,301.986
		h9.967v-17.851h6.674c2.415,0,7.054,0,10.417-2.162c3.621-2.34,5.841-6.843,5.841-12.196c0-2.337-0.381-5.653-2.792-8.578
		c-3.811-4.555-9.337-4.997-15.944-4.997h-14.163V301.986L553.795,301.986z M563.509,263.61h4.954c2.801,0,8.075,0,8.075,6.239
		c0,6.984-5.911,6.984-9.088,6.984h-3.94V263.61L563.509,263.61z M597.694,301.986h9.966v-17.851h6.683
		c2.411,0,7.036,0,10.404-2.162c3.616-2.34,5.85-6.843,5.85-12.196c0-2.337-0.391-5.653-2.801-8.578
		c-3.81-4.555-9.323-4.997-15.936-4.997h-14.166V301.986L597.694,301.986z M607.413,263.61h4.943c2.802,0,8.083,0,8.083,6.239
		c0,6.984-5.919,6.984-9.092,6.984h-3.935V263.61L607.413,263.61z M640.896,301.986h31.429v-7.603h-21.59v-12.41h19.568v-7.48
		h-19.568v-10.938h20.898v-7.497h-30.737V301.986L640.896,301.986z M683.898,301.986h10.033v-18.542h8.65
		c1.648,0,4.059,0,4.945,2.607c0.639,1.771,2.039,13.399,2.482,15.935h10.864c-0.513-0.762-0.902-1.259-1.4-3.297
		c-0.318-1.276-0.709-3.492-1.399-8.898c-0.835-5.973-1.328-9.907-8.26-10.548c2.233-0.618,9.59-2.658,9.59-11.238
		c0-2.995-1.137-6.362-3.988-8.825c-3.686-3.175-8.827-3.175-13.915-3.121h-17.603V301.986L683.898,301.986z M693.614,263.307h6.609
		c3.122,0,4.965,0,6.489,1.065c0.886,0.585,2.41,2.038,2.41,5.158c0,3.244-1.844,4.84-2.534,5.334
		c-1.598,1.278-3.883,1.278-5.035,1.278h-7.939V263.307L693.614,263.307z M740.815,301.986h9.91v-38.305h13.667v-7.623h-37.226
		v7.623h13.648V301.986L740.815,301.986z M780.719,256.058l-16.575,45.928h9.396l3.438-9.907h18.171l3.295,9.907h9.909
		l-15.952-45.928H780.719L780.719,256.058z M779.513,284.651l6.789-19.569l6.362,19.569H779.513L779.513,284.651z M818.527,301.986
		h29.708v-7.8h-19.692v-38.057h-10.016V301.986L818.527,301.986z"/>
	<path fill="#FFFFFF" d="M431.12,164.527v27.447c0,4.26,0.128,7.804,2.348,11.313c4.316,6.913,12.701,7.924,17.279,7.924
		c9.28,0,20.137-4.377,20.137-18.027v-28.657h-9.585v27.447c0,4.633-0.51,6.423-1.463,7.804c-2.543,3.955-7.307,4.009-8.897,4.009
		c-9.6,0-9.979-6.294-9.979-11.311v-27.949H431.12L431.12,164.527z M483.721,210.327h9.266v-38.112l17.797,38.112h13.525v-45.925
		h-9.137v36.138l-17.226-36.138h-14.225V210.327L483.721,210.327z M537.47,210.327h9.839v-46.052h-9.839V210.327L537.47,210.327z
		 M557.159,164.593l16.897,45.734h10.737l16.895-45.734h-9.715L579.9,200.611l-12.004-36.018H557.159L557.159,164.593z
		 M612.058,210.327h31.427v-7.623h-21.591v-12.389h19.57v-7.491h-19.57v-10.933h20.898v-7.489h-30.734V210.327L612.058,210.327z
		 M655.06,210.327h10.033v-18.552h8.632c1.665,0,4.076,0,4.964,2.605c0.638,1.782,2.037,13.41,2.48,15.946h10.848
		c-0.496-0.763-0.886-1.276-1.382-3.297c-0.319-1.278-0.708-3.492-1.4-8.901c-0.834-5.973-1.33-9.907-8.261-10.54
		c2.233-0.638,9.592-2.668,9.592-11.248c0-2.987-1.136-6.355-4.009-8.828c-3.669-3.177-8.825-3.177-13.896-3.111H655.06V210.327
		L655.06,210.327z M664.771,171.635h6.613c3.119,0,4.962,0,6.487,1.082c0.888,0.571,2.41,2.034,2.41,5.149
		c0,3.244-1.844,4.83-2.551,5.34c-1.578,1.271-3.864,1.271-5.017,1.271h-7.943V171.635L664.771,171.635z M701.572,195.657
		c0.053,4.442,0.177,15.751,17.779,15.751c12.709,0,19.552-6.666,19.552-14.925c0-8.957-7.8-11.115-15.743-13.021
		c-6.609-1.652-9.978-2.415-9.978-6.673c0-3.753,2.976-6.23,7.567-6.23c6.79,0,7.304,5.403,7.428,6.993h9.467
		c0-1.525,0-5.212-2.605-8.517c-3.423-4.317-9.077-5.393-13.846-5.393c-12.779,0-18.168,6.66-18.168,14.228
		c0,7.942,5.973,11.181,16.893,13.916c5.849,1.399,8.702,2.092,8.702,6.168c0,3.863-3.366,6.418-8.702,6.418
		c-8.457,0-8.331-6.559-8.331-8.714H701.572L701.572,195.657z M750.602,210.327h9.837v-46.052h-9.837V210.327L750.602,210.327z
		 M784.087,210.327h9.908v-38.311h13.649v-7.614h-37.207v7.614h13.649V210.327L784.087,210.327z M832.743,160.963h6.486v-7.488
		h-6.486V160.963L832.743,160.963z M821.823,160.963h6.471v-7.488h-6.471V160.963L821.823,160.963z M824.625,164.459l-16.592,45.867
		h9.41l3.423-9.911h18.168l3.297,9.911h9.909l-15.936-45.867H824.625L824.625,164.459z M823.42,192.989l6.788-19.572l6.346,19.572
		H823.42L823.42,192.989z M867.113,210.327h9.908v-38.311h13.668v-7.614h-37.226v7.614h13.649V210.327L867.113,210.327z"/>
	<path fill="#FFFFFF" d="M430.867,118.661h17.149c1.777,0,8.008,0,11.563-1.838c3.554-1.778,6.732-5.395,6.732-10.8
		c0-4.831-2.736-9.909-9.715-11.18v-0.129c2.663-0.697,4.888-2.727,5.204-3.107c2.348-2.163,2.667-5.149,2.667-6.864
		c0-2.672-0.953-7.116-5.141-9.785c-3.493-2.157-8.642-2.157-11.31-2.157h-17.149V118.661L430.867,118.661z M440.261,79.846h6.674
		c3.239,0,8.074,0,8.074,5.721c0,5.912-5.087,5.912-7.883,5.912h-6.865V79.846L440.261,79.846z M440.261,98.587h5.655
		c4.706,0,10.618,0,10.618,6.55c0,6.164-5.086,6.164-9.598,6.164h-6.674V98.587L440.261,98.587z M478.704,118.661h31.437v-7.613
		h-21.598V98.649h19.565V91.16h-19.565V80.227h20.898v-7.49h-30.736V118.661L478.704,118.661z M521.712,118.661h10.028v-18.55h8.646
		c1.652,0,4.067,0,4.958,2.607c0.634,1.776,2.034,13.404,2.477,15.943h10.857c-0.51-0.763-0.89-1.267-1.4-3.301
		c-0.315-1.272-0.697-3.497-1.396-8.894c-0.825-5.974-1.334-9.908-8.252-10.542c2.22-0.634,9.585-2.664,9.585-11.248
		c0-2.987-1.145-6.354-3.998-8.827c-3.682-3.172-8.827-3.172-13.914-3.112h-17.593V118.661L521.712,118.661z M531.426,79.975h6.607
		c3.115,0,4.958,0,6.482,1.076c0.892,0.573,2.42,2.035,2.42,5.149c0,3.244-1.847,4.835-2.543,5.339
		c-1.591,1.273-3.878,1.273-5.026,1.273h-7.94V79.975L531.426,79.975z M610.143,86.839c-0.071-2.482-0.267-6.102-3.315-9.595
		c-3.616-4.125-9.709-5.777-15.616-5.777c-13.919,0-24.076,8.697-24.076,24.966c0,4.821,0.952,12.133,6.092,17.154
		c3.621,3.553,9.023,6.093,19.509,6.093c9.215,0,13.912-1.59,16.767-2.54V94.212h-18.74v7.613h8.898v9.666
		c-1.081,0.319-2.729,0.891-7.498,0.891c-5.469,0-8.517-1.401-10.804-3.944c-3.367-3.625-3.812-9.213-3.812-12.324
		c0-7.05,2.226-17.478,13.41-17.478c2.156,0,5.778,0.51,7.685,3.563c1.143,1.776,1.214,3.43,1.274,4.64H610.143L610.143,86.839z
		 M623.046,118.661h9.838V72.609h-9.838V118.661L623.046,118.661z M644.192,103.993c0.071,4.449,0.197,15.749,17.778,15.749
		c12.712,0,19.57-6.665,19.57-14.921c0-8.96-7.8-11.119-15.74-13.024c-6.611-1.653-9.979-2.415-9.979-6.674
		c0-3.75,2.978-6.23,7.551-6.23c6.809,0,7.32,5.406,7.444,6.997h9.45c0-1.528,0-5.216-2.591-8.522
		c-3.438-4.316-9.093-5.392-13.861-5.392c-12.762,0-18.15,6.665-18.15,14.23c0,7.94,5.958,11.179,16.894,13.913
		c5.85,1.397,8.704,2.096,8.704,6.16c0,3.878-3.37,6.417-8.704,6.417c-8.455,0-8.332-6.541-8.332-8.703H644.192L644.192,103.993z
		 M729.701,87.725c0-9.151-7.054-15.24-17.087-15.24c-12.904,0-21.022,9.647-21.022,24.201c0,11.376,5.141,23.057,20.95,23.057
		c4.204,0,9.344-0.953,13.402-5.141c3.686-3.811,3.935-8.065,4.131-10.799h-10.354c-0.193,6.102-4.128,8.705-8.261,8.705
		c-9.588,0-9.588-13.025-9.588-15.76c0-9.465,3.047-17.092,10.352-17.092c6.666,0,7.249,6.479,7.428,8.07H729.701L729.701,87.725z
		 M741.137,118.661h9.836V98.525h17.479v20.136h9.854V72.737h-9.979v18.36h-17.354v-18.36h-9.836V118.661L741.137,118.661z
		 M792.54,118.661h31.429v-7.613h-21.591V98.649h19.569V91.16h-19.569V80.227h20.899v-7.49H792.54V118.661L792.54,118.661z"/>
	<path fill="#FFFFFF" d="M209.954,49.131l-0.008-0.004l-0.036-0.833c0-5.394,4.392-9.763,9.811-9.763
		c5.416,0,9.807,4.369,9.807,9.763l-0.035,0.837H209.954L209.954,49.131z"/>
	<path fill="#FFFFFF" d="M220.479,88.376v-10.53h-9.594h-34.792l0.022,0.004c0.626,5.917,5.602,10.525,11.65,10.525H220.479
		L220.479,88.376z"/>
	<path fill="#FFFFFF" d="M187.305,49.145L176.7,38.593h13.521l-0.004,0.005c6.125,0,11.172,4.623,11.802,10.547H187.305
		L187.305,49.145z"/>
	<path fill="#FFFFFF" d="M168.054,88.443h-12.567l-0.018,0.044c0.993-6.009,6.239-10.595,12.563-10.595L168.054,88.443
		L168.054,88.443z"/>
	<path fill="#FFFFFF" d="M217.333,101.551h-24.988H168.05h-0.044c-6.27,0-11.485-4.511-12.536-10.454l25.083,0.044h24.293h0.049
		c6.27,0,11.481,4.511,12.536,10.454L217.333,101.551L217.333,101.551z"/>
	<path fill="#FFFFFF" d="M181.256,117.11l-10.556,10.6h22.417h33.587h29.616c6.151,0,11.207-4.661,11.805-10.621l0.013,0.021
		h-22.237h-34.565H181.256L181.256,117.11z"/>
	<path fill="#FFFFFF" d="M252.74,49.136l10.604-10.547h-13.525l0.005,0.009c-6.125,0-11.168,4.617-11.798,10.547L252.74,49.136
		L252.74,49.136z"/>
	<polygon fill="#FFFFFF" points="239.083,62.213 249.682,51.658 249.682,51.613 189.521,51.707 200.072,62.257 239.028,62.257 
		239.083,62.213 	"/>
	<path fill="#FFFFFF" d="M220.479,101.555V91.008l49.647,0.009l0.026,0.004c-0.629,5.929-5.672,10.547-11.797,10.547
		L220.479,101.555L220.479,101.555z"/>
	<path fill="#FFFFFF" d="M223.106,88.456l10.654-10.547h30.688l0.027-0.013c-0.629,5.93-5.673,10.547-11.802,10.547L223.106,88.456
		L223.106,88.456z"/>
	<path fill="#FFFFFF" d="M184.588,104.108h32.837h23.73h31.809h0.022c-0.647,5.906-5.633,10.555-11.743,10.555h-28.872h-15.926
		h-20.131C190.203,114.663,185.239,110.02,184.588,104.108L184.588,104.108z"/>
	<path fill="#FFFFFF" d="M172.092,140.729v0.013l-13.808,13.685l-7.468-7.499l-0.026,0.036h0.022l16.875-16.728h35.921h17.048
		h20.646h11.632l10.157-0.015c-0.652,5.908-5.681,10.498-11.788,10.498L172.092,140.729L172.092,140.729z"/>
	<path fill="#FFFFFF" d="M177.414,153.852l67.434,0.027c6.13,0,11.172-4.623,11.801-10.557l-83.74,0.014l-44.976,44.75
		c4.662,3.753,11.557,3.528,15.887-0.785L177.414,153.852L177.414,153.852z"/>
	<path fill="#FFFFFF" d="M182.635,166.928l54.179,0.041c6.129,0,11.172-4.623,11.795-10.552l-70.442,0.008l-31.875,31.654
		c4.661,3.754,11.556,3.526,15.886-0.788L182.635,166.928L182.635,166.928z"/>
	<path fill="#FFFFFF" d="M183.391,169.614h58.296l7.485,10.552l-30.886-0.004h-30.435l-7.318,7.285
		c-4.332,4.313-11.228,4.537-15.89,0.789l18.727-18.599L183.391,169.614L183.391,169.614z"/>
	<path fill="#FFFFFF" d="M260.255,195.703l-58.983,0.034c0.63,5.921,5.668,10.618,11.798,10.618l54.723,0.019L260.255,195.703
		L260.255,195.703z"/>
	<path fill="#FFFFFF" d="M251.108,182.731l-61.943-0.035c0.63,5.93,5.669,10.612,11.797,10.612l57.627,0.02L251.108,182.731
		L251.108,182.731z"/>
	<path fill="#FFFFFF" d="M219.451,326.714h-18.604h0.019c0.599,5.902,5.349,10.511,11.123,10.511h7.466h1.024v-10.511h-0.979
		H219.451L219.451,326.714z"/>
	<path fill="#FFFFFF" d="M228.079,311.043h-7.892h-27.839l0.018-0.053c0.643-5.921,5.69-10.548,11.818-10.548h13.344h10.551h10.587
		h-0.005h0.005h13.339c6.133,0,11.176,4.627,11.818,10.548l0.023,0.053h-27.848h-7.888H228.079L228.079,311.043z"/>
	<path fill="#FFFFFF" d="M209.657,274.316c5.579,0.568,10.02,4.964,10.618,10.494l0.009,0.052h-10.626V274.316L209.657,274.316z"/>
	<path fill="#FFFFFF" d="M227.125,287.362h6.958h29.762l-0.023,0.035c-0.642,5.938-5.685,10.548-11.818,10.548h0.018H227.13h-9.67
		h-25.178l0.017-0.036c0.638-5.938,5.686-10.547,11.819-10.547h13.342H227.125L227.125,287.362z"/>
	<path fill="#FFFFFF" d="M221.134,313.489h25.769l-0.022,0.038c-0.637,5.937-5.685,10.564-11.817,10.564h0.022h-13.938h-21.284
		h-27.838l0.019-0.054c0.637-5.938,5.689-10.549,11.818-10.549h13.343h11.442h12.5H221.134L221.134,313.489z"/>
	<path fill="#FFFFFF" d="M231.332,75.258l-46.703-0.03l-0.035,0.05c0.611-5.951,5.662-10.597,11.805-10.597l34.937,0.027
		l29.678,0.018l0.031-0.044c-0.611,5.951-5.657,10.597-11.801,10.597h-0.062l-18.036-0.014L231.332,75.258L231.332,75.258z"/>
	<path fill="#FFFFFF" d="M232.292,248.117l-17.309,0.018c0.625,5.921,5.664,10.619,11.792,10.619h5.146l0.278,0.088h7.716
		l0.12,0.017h23.811l-0.023-0.069c-0.604-5.708-5.282-10.246-11.091-10.601l-12.724,0.035l-8.086-0.106H232.292L232.292,248.117z"/>
	<path fill="#FFFFFF" d="M263.837,235.072h-51.964c0.63,5.938,5.664,10.616,11.792,10.616l29.43-0.034L263.837,235.072
		L263.837,235.072z"/>
	<polygon fill="#FFFFFF" points="235.396,232.5 265.99,232.484 276.732,221.901 224.772,221.901 214.12,232.5 235.396,232.5 	"/>
	<path fill="#FFFFFF" d="M227.844,208.713h-13.703c0.63,5.938,5.665,10.616,11.793,10.616h1.918l48.765,0.019l-0.019-0.071
		c-0.603-5.69-5.287-10.264-11.091-10.601l-37.61,0.037H227.844L227.844,208.713z"/>
	<path fill="#FFFFFF" d="M238.896,261.235h29.357c6.006,0.142,10.934,4.696,11.563,10.528l-41.013-0.017h-8.341l-0.066,0.017
		c-6.004-0.141-10.888-4.68-11.518-10.528h19.925H238.896L238.896,261.235z"/>
	<path fill="#FFFFFF" d="M259.587,274.316h-23.829c-6.132,0-11.18,4.626-11.817,10.563l35.65-0.018h8.406
		c6.129,0,11.181-4.625,11.819-10.563l-20.088,0.018H259.587L259.587,274.316z"/>
	<path fill="#FFFFFF" d="M281.216,184.991l7.54-7.498l7.578-7.542h0.003c3.736,4.634,3.443,11.424-0.877,15.722l-6.776,6.75
		l-4.634,4.607h0.008c-4.329,4.29-11.163,4.574-15.825,0.851L281.216,184.991L281.216,184.991z"/>
	<path fill="#FFFFFF" d="M321.765,67.038V51.209v0.022c4.307,0,8.078,2.287,10.156,5.705L321.765,67.038L321.765,67.038z"/>
	<path fill="#FFFFFF" d="M322.403,143.88l26.224-26.092l-0.013,0.013c3.767,4.635,3.487,11.45-0.846,15.763l-26.227,26.097
		l0.015-0.017C317.786,155.007,318.074,148.192,322.403,143.88L322.403,143.88z"/>
	<path fill="#FFFFFF" d="M344.875,118.112l-23.225,23.114v-0.004c-3.768-4.637-3.483-11.452,0.85-15.759l23.23-23.119l-0.009,0.005
		C349.492,106.989,349.209,113.799,344.875,118.112L344.875,118.112z"/>
	<path fill="#FFFFFF" d="M308.683,120.548l0.084-0.08l29.053-28.906l11.313-11.256l0.049,0.022
		c3.735,4.631,3.447,11.419-0.873,15.719l-23.802,23.681l0.013-0.017C320.192,124.019,313.344,124.297,308.683,120.548
		L308.683,120.548z"/>
	<path fill="#FFFFFF" d="M337.425,69.867l-16.795,16.71l0.01-0.009c-3.767-4.635-3.487-11.45,0.842-15.763l8.451-8.401
		l16.959-16.879l0.013-0.014c3.771,4.634,3.488,11.45-0.847,15.763L337.425,69.867L337.425,69.867z"/>
	<path fill="#FFFFFF" d="M271.809,79.58V64.659l0.032-0.031l23.983-23.863l-0.015,0.019c3.767,4.639,3.485,11.446-0.845,15.758
		L271.809,79.58L271.809,79.58z"/>
	<path fill="#FFFFFF" d="M278.491,110.034c-3.732-4.632-3.439-11.425,0.877-15.724l16.799-16.725l7.463,7.427L278.491,110.034
		L278.491,110.034z"/>
	<path fill="#FFFFFF" d="M272.88,133.984c-3.735-4.63-3.443-11.424,0.877-15.718l31.681-31.512l7.463,7.428L272.88,133.984
		L272.88,133.984z"/>
	<path fill="#FFFFFF" d="M348.897,62.022c3.764,4.64,3.484,11.451-0.851,15.762l-86.919,86.502
		c-3.767-4.635-3.486-11.452,0.847-15.763L348.897,62.022L348.897,62.022z"/>
	<path fill="#FFFFFF" d="M280.822,52.225l-8.916,8.876V48.555l1.289-0.08C276.307,48.475,279.001,50.008,280.822,52.225
		L280.822,52.225z"/>
	<path fill="#FFFFFF" d="M296.062,133.125v-0.005c3.678,4.565,3.452,11.208-0.673,15.52l-0.909,0.913l-8.144,8.105l-11.163,11.11
		l-4.858,4.831l0.01-0.009c-4.326,4.308-11.163,4.591-15.825,0.855l13.436-13.335l10.489-10.436l9.35-9.301l8.278-8.248H296.062
		L296.062,133.125z"/>
	<path fill="#FFFFFF" d="M271.312,176.288l8.049-8.008l9.345-9.301l7.582-7.542l0.005-0.005c3.736,4.635,3.443,11.425-0.877,15.722
		l-8.145,8.106l-8.496,8.455l-1.148,1.143l0.01-0.009c-4.326,4.308-11.167,4.59-15.824,0.856l9.496-9.427L271.312,176.288
		L271.312,176.288z"/>
	<path fill="#FFFFFF" d="M337.749,180.737l-28.073,27.923l-5.114,5.104l-4.852,4.822h0.009c-4.33,4.307-11.164,4.591-15.821,0.851
		l13.432-13.33l4.884-4.855l28.073-27.942l5.614-5.591l9.347-9.299l7.577-7.547h0.004c3.736,4.636,3.444,11.425-0.877,15.719
		l-8.144,8.108L337.749,180.737L337.749,180.737z"/>
	<path fill="#FFFFFF" d="M303.484,196.483l15.626-15.551l-0.044-0.017c-4.671-3.745-11.522-3.462-15.856,0.85l0.013-0.013
		l-7.285,7.246l-9.458,9.418l-0.036,0.034l-9.132,9.092h0.045c4.666,3.759,11.521,3.475,15.855-0.849l0.767-0.764l7.838-7.801
		l1.653-1.63L303.484,196.483L303.484,196.483z"/>
	<path fill="#FFFFFF" d="M284.531,70.641l6.01-5.973l-0.036,0.031l6.824-6.79c3.771,4.636,3.487,11.451-0.842,15.763h-0.003
		l-4.454,4.428l-4.816,4.793l-1.432,1.423l-10.955,10.896c-3.766-4.634-3.483-11.45,0.852-15.757l4.037-4.02l0.031-0.036
		L284.531,70.641L284.531,70.641z"/>
	<polygon fill="#FFFFFF" points="265.192,237.942 279.063,224.134 286.591,231.632 272.726,245.421 265.192,237.942 	"/>
	<path fill="#FFFFFF" d="M303.126,233.706l-7.894,7.817l-4.852,4.84l0.009-0.019c-4.33,4.308-11.167,4.59-15.825,0.853l13.52-13.491
		H303.126L303.126,233.706z"/>
	<path fill="#FFFFFF" d="M337.247,184.806l13.641-13.575l-0.005,0.004c3.767,4.639,3.488,11.452-0.845,15.763l-5.292,5.264
		l-23.255,23.132l-17.93,17.851l0,0c-3.771-4.625-3.487-11.45,0.846-15.757l9.603-9.537l23.186-23.066L337.247,184.806
		L337.247,184.806z"/>
	<path fill="#FFFFFF" d="M288.505,251.857h0.005l18.608-18.505l11.309-11.256l0.049,0.018c3.731,4.627,3.438,11.414-0.877,15.723
		l-14.12,14.058L288.505,251.857L288.505,251.857z"/>
	<polygon fill="#FFFFFF" points="304.388,254.481 314.528,244.377 314.537,259.266 304.402,269.299 304.388,254.481 	"/>
	<path fill="#FFFFFF" d="M321.122,178.636l0.017-0.014c-3.771-4.64-3.487-11.45,0.847-15.763l30.772-30.59l0.027-0.022
		c3.771,4.631,3.492,11.447-0.847,15.758l-30.754,30.599L321.122,178.636L321.122,178.636z"/>
	<path fill="#FFFFFF" d="M327.254,219.33h-6.066l10.325-10.263l0.049,0.037c2.358,2.338,2.358,6.132,0,8.489
		c-1.214,1.206-2.823,1.772-4.417,1.736H327.254L327.254,219.33z"/>
	<path fill="#FFFFFF" d="M107.104,57.462L107.104,57.462c-4.661-3.767-11.521-3.492-15.855,0.824l7.498,7.462L107.104,57.462
		L107.104,57.462z"/>
	<path fill="#FFFFFF" d="M133.506,49.805l-10.962,10.911L111.74,71.467l-11.625,11.565L85.944,97.129l0,0
		c-3.735-4.632-3.444-11.42,0.878-15.723l10.799-10.747l10.468-10.418l9.514-9.465l0.093-0.12c4.326-4.303,11.158-4.59,15.82-0.856
		L133.506,49.805L133.506,49.805z"/>
	<path fill="#FFFFFF" d="M134.637,67.318l-8.141,8.11l-11.158,11.104l-4.851,4.835l0.008-0.01
		c-4.325,4.303-11.163,4.591-15.82,0.856l13.431-13.334l10.486-10.436l9.346-9.302l7.573-7.542l0.004-0.005
		C139.25,56.235,138.958,63.024,134.637,67.318L134.637,67.318z"/>
	<path fill="#FFFFFF" d="M153.554,66.844l-19.387,19.295l-25.498,25.37l-0.014,0.021c-3.74-4.639-3.448-11.428,0.874-15.727
		l20.114-20.017l24.776-24.648l0.013-0.018C158.169,55.761,157.875,62.545,153.554,66.844L153.554,66.844z"/>
	<path fill="#FFFFFF" d="M105.74,118.25l8.503-8.47l12.071-12.012l9.315-9.266l10.6-10.551l0.035,0.036
		c3.736,4.634,3.443,11.423-0.877,15.722l-5.925,5.899l-10.622,10.568l-7.268,7.228C117.244,121.714,110.396,121.998,105.74,118.25
		L105.74,118.25z"/>
	<path fill="#FFFFFF" d="M146.101,96.45l7.499,7.463l-14.173,14.097l0.036-0.032c-4.325,4.304-11.163,4.593-15.825,0.855
		L146.101,96.45L146.101,96.45z"/>
	<path fill="#FFFFFF" d="M172.193,122.401l-7.475-7.436l-6.479,6.448l-23.477,23.358l0.017-0.009
		c4.622,3.758,11.252,3.669,15.337-0.394L172.193,122.401L172.193,122.401z"/>
	<path fill="#FFFFFF" d="M162.981,113.157l-7.476-7.436l-6.475,6.442l-23.477,23.363l0.013-0.013
		c4.622,3.762,11.256,3.673,15.337-0.391L162.981,113.157L162.981,113.157z"/>
	<path fill="#FFFFFF" d="M89.985,148.8l-7.498-7.458v-0.018c4.334-4.316,11.189-4.6,15.856-0.856L89.985,148.8L89.985,148.8z"/>
	<path fill="#FFFFFF" d="M94.647,162.634l-10.201,10.152l-9.151,9.102l0.008-0.005c-3.767-4.643-3.478-11.463,0.856-15.775
		l-0.121,0.12l11.109-11.057l1.441-1.432l17.602-17.517l9.151-9.102l-0.005,0.004c3.767,4.645,3.479,11.459-0.859,15.775
		l-14.376,14.305L94.647,162.634L94.647,162.634z"/>
	<path fill="#FFFFFF" d="M121.67,154.374l-23.911,23.798l-21.041,20.934l-0.022-0.054c-3.762-4.643-3.474-11.455,0.86-15.771
		l23.899-23.778l21.041-20.935l0.017,0.045c3.763,4.645,3.479,11.464-0.854,15.776L121.67,154.374L121.67,154.374z"/>
	<path fill="#FFFFFF" d="M104.078,175.025c-4.339,4.312-4.623,11.131-0.86,15.776l0.03,0.035l33.723-33.56l-15.093,0.036
		L104.078,175.025L104.078,175.025z"/>
	<path fill="#FFFFFF" d="M113.162,199.318c-4.338,4.325-11.189,4.608-15.86,0.868l0.009-0.016l14.729-14.652l16.547-16.472
		l11.797-11.726l15.093-0.035l-22.76,22.644l-19.419,19.318L113.162,199.318L113.162,199.318z"/>
	<path fill="#FFFFFF" d="M190.301,195.506l-20.567,20.474h-0.008c-3.767-4.627-3.488-11.45,0.846-15.757l4.742-4.717H190.301
		L190.301,195.506z"/>
	<path fill="#FFFFFF" d="M153.191,235.939l-40.849,40.593c4.662,3.758,11.558,3.526,15.891-0.779l40.021-39.813H153.191
		L153.191,235.939z"/>
	<path fill="#FFFFFF" d="M121.816,226.545l-7.497-7.444l0.003-0.036c4.33-4.309,11.186-4.592,15.852-0.852L121.816,226.545
		L121.816,226.545z"/>
	<path fill="#FFFFFF" d="M151.104,215.945l-23.912,23.789l-21.041,20.935l-0.017-0.037c-3.763-4.645-3.479-11.47,0.854-15.776
		l23.905-23.788l21.04-20.935l0.018,0.054c3.763,4.643,3.474,11.453-0.86,15.776L151.104,215.945L151.104,215.945z"/>
	<path fill="#FFFFFF" d="M150.918,234.645c4.147-4.306,4.37-10.973,0.661-15.544l-7.303,7.267l-21.001,20.898
		c-4.334,4.325-4.622,11.132-0.856,15.776l0.022,0.035l22.893-22.759l5.503-5.479L150.918,234.645L150.918,234.645z"/>
	<path fill="#FFFFFF" d="M214.058,245.955l-7.463-7.428l-12.146,12.072l-23.477,23.363l0.013-0.02
		c4.621,3.759,11.251,3.67,15.336-0.39L214.058,245.955L214.058,245.955z"/>
	<path fill="#FFFFFF" d="M203.302,260.242l-13.152,13.08h0.013c4.622,3.759,11.252,3.673,15.337-0.406l5.282-5.246l6.767-6.736
		l-7.467-7.426l-6.741,6.7L203.302,260.242L203.302,260.242z"/>
	<path fill="#FFFFFF" d="M193.456,196.234l7.499,7.462l-28.078,27.937l0,0c-3.771-4.626-3.488-11.451,0.842-15.758L193.456,196.234
		L193.456,196.234z"/>
	<path fill="#FFFFFF" d="M158.652,264.285c-4.335,4.306-11.186,4.59-15.843,0.831l0.103-0.034l59.851-59.561l7.467,7.446
		L158.652,264.285L158.652,264.285z"/>
	<path fill="#FFFFFF" d="M160.53,280.981c-4.333,4.325-11.18,4.591-15.842,0.854l0.106-0.057l67.283-66.95l7.463,7.427
		L160.53,280.981L160.53,280.981z"/>
</g>
</svg>
