<?xml version="1.0" encoding="utf-8"?>
<!-- Generator: Adobe Illustrator 16.0.0, SVG Export Plug-In . SVG Version: 6.00 Build 0)  -->
<!DOCTYPE svg PUBLIC "-//W3C//DTD SVG 1.1//EN" "http://www.w3.org/Graphics/SVG/1.1/DTD/svg11.dtd">
<svg version="1.1" id="Ebene_1" xmlns="http://www.w3.org/2000/svg" xmlns:xlink="http://www.w3.org/1999/xlink" x="0px" y="0px"
	 width="1888.405px" height="496.475px" viewBox="0 0 1888.405 496.475" enable-background="new 0 0 1888.405 496.475"
	 xml:space="preserve">
<rect x="274.11" y="6.482" fill-rule="evenodd" clip-rule="evenodd" width="60.37" height="54.712"/>
<rect x="497.787" y="6.477" fill-rule="evenodd" clip-rule="evenodd" width="60.195" height="54.716"/>
<g>
	<path fill-rule="evenodd" clip-rule="evenodd" d="M1636.988,263.695l13.621,0.007c17.609,0.009,35.093-0.002,52.681,0l14.169,0.003
		l0.075-23.505c0.02-6.071-0.019-12.125-0.002-18.215c0.026-9.833-0.017-19.581-0.004-29.405l0.017-13.453l19.084-0.092
		l13.477-0.065l0.974,1.777l39.104,75.07l4.229,7.892l17.862-0.003c18.613-0.003,37.219-0.01,55.821-0.001l21.299,0.01
		l-21.79-33.114c-14.594-22.179-29.255-44.332-43.721-66.56c1.376-0.937,2.747-1.701,4.107-2.396
		c2.736-1.399,51.463-24.887,38.167-92.411c-0.609-2.724-1.344-5.417-2.222-8.066c-1.211-3.656-2.734-7.201-4.543-10.589
		c-21.745-44.071-95.791-43.89-101.476-43.967c-17.193-0.232-34.376-0.003-51.619-0.013c-23.021-0.013-45.747-0.276-69.054,0.201
		c-0.256,43.155-0.049,85.813-0.111,128.763c-0.031,21.48,0.016,42.87,0.001,64.338c-0.008,10.734-0.019,21.438,0.012,32.167
		c0.003,1.026,0,2.051-0.005,3.077L1636.988,263.695z M1744.719,124.98c9.354,0.07,18.562,0.284,27.371-3.488
		c9.457-4.05,12.064-15.77,12.089-25.309c0.025-9.616-0.98-21.483-11.254-26.013c-0.579-0.255-0.595-0.602-1.294-0.757
		c-0.61-0.136-0.947-0.315-1.426-0.456c-8.461-2.479-17.188-2.3-25.987-2.196c-2.545,0.03-5.055-0.023-7.562-0.021l-19.044,0.025
		l-0.09,15.41c-0.065,11.279,0.038,22.438,0.042,33.799l0.003,8.955l9.164,0.127C1732.74,125.14,1738.676,124.935,1744.719,124.98z"
		/>
	<rect x="1.443" y="342.906" fill-rule="evenodd" clip-rule="evenodd" fill="#FFFF01" width="1887.418" height="153.15"/>
	<path fill-rule="evenodd" clip-rule="evenodd" d="M1050.205,256.195l8.401-2.79l-1.204-8.108
		c-1.933-13.025-3.745-26.062-5.688-39.112c-0.617-4.142-2.016-13.534-2.016-13.534s-3.601,1.457-6.074,2.458
		c-2.342,0.948-75.687,23.832-102.042-8.615c-1.479-1.821-11.097-15.663-10.96-43.692c-0.086-4.645,0.102-9.313,0.014-13.964
		c-0.14-7.405,0.801-14.729,1.828-22.041c1.074-7.649,3.519-15.082,7.724-21.576c4.666-7.206,12.371-11.886,20.594-14.276
		c14.206-4.129,29.375-3.804,44.134-3.127c11.961,0.549,23.862,2.558,35.559,5.191l9.202,2.072l2.585-19.31
		c0.529-3.957,1.092-7.901,1.558-11.891c0.75-6.434,1.621-12.797,2.407-19.204l1.539-12.532l-6.363-1.914
		c-9.286-2.793-18.73-4.43-28.258-5.993c-11.583-1.9-23.268-2.479-35.03-2.551c-23.911-0.145-47.868,2.733-70.175,11.405
		c-0.454,0.176-0.893,0.21-1.356,0.402c-0.537,0.223-0.982,0.552-1.499,0.765c-14.014,5.754-26.936,14.214-37.471,25.181
		c-10.524,10.954-18.245,24.262-23.366,38.577c-4.63,12.943-7.095,26.53-8.105,40.281c-3.304,55.522,13.269,88.392,22.35,102
		C930.727,300.838,1048.622,256.72,1050.205,256.195z"/>
	<path fill-rule="evenodd" clip-rule="evenodd" d="M82.413,263.66l0.15-14.979c0.178-17.749-0.157-35.354,0.026-53.108
		c0.048-4.64-0.032-9.239-0.036-13.867l-0.017-18.383l8.696,0.012l15.841,0.022l7.423,12.038
		c13.852,22.235,27.65,44.479,41.482,66.724c1.217,1.958,2.441,3.91,3.658,5.863l9.791,15.709l18.223,0.012
		c9.646,0.006,19.297-0.003,28.945,0c22.886,0.008,45.772-0.011,68.652-0.001c11.359,0.005,22.735,0.005,34.082-0.003
		c3.54-0.003,7.106,0.014,10.65,0.012l22.996-0.007l3.372-10.981c0.788-2.564,1.561-5.131,2.413-7.674
		c0.601-1.793,1.191-3.619,1.769-5.423l6.149-19.185l14.292,0.13c1.54,0.01,3.08,0.034,4.617,0.021
		c2.719-0.024,5.441-0.005,8.161-0.005c11.362-0.003,22.725-0.004,34.086,0c1.693,0,3.387-0.001,5.08-0.002l29.976-0.024
		l5.318,17.292c0.468,1.736,1.031,3.438,1.575,5.146l6.611,20.74l23.221-0.038c1.037-0.002,2.075-0.003,3.112-0.002
		c11.363,0.016,22.727,0,34.086,0.006c3.065,0.001,6.136,0,9.203-0.001l20.848-0.005l-13.06-32.228
		c-14.774-36.458-29.584-72.928-44.354-109.38c-9.266-22.867-18.582-45.81-27.829-68.616c-3.665-9.039-7.375-18.171-11.049-27.243
		l-7.967-19.668l-21.811-0.003c-12.443-0.005-24.902-0.004-37.354-0.003L369.008,6.56l-5.483,14.208
		c-2.159,5.66-4.481,11.194-6.704,16.823c-4.507,11.41-9.025,22.722-13.567,34.159c-18.19,45.807-36.319,91.364-54.449,136.98
		c-4.477,11.265-9.002,22.609-13.462,33.88c-0.813,2.054-1.623,4.111-2.434,6.167l-5.667,14.368l-7.7-11.94
		c-0.501-0.777-1.005-1.555-1.514-2.33c-14.814-22.57-29.673-45.193-44.445-67.735c-7.529-11.489-15.155-23.068-22.653-34.539
		c-0.48-0.736-0.971-1.468-1.464-2.2L178.702,128.4l13.95-20.281c6.449-9.375,12.979-18.794,19.463-28.204
		c7.726-11.213,15.487-22.419,23.203-33.608c3.726-5.403,7.468-10.805,11.207-16.214l16.273-23.538l-18.36,0.002
		c-3.992,0-8.006,0-12.002-0.001c-5.825,0-11.651,0-17.479,0.001l-45.012,0.001l-13.076,20.239
		c-11.637,18.012-23.25,36.095-34.848,54.066c-1.843,2.856-3.729,5.754-5.561,8.61c-0.708,1.104-1.419,2.214-2.133,3.323
		l-6.327,9.838l-12.383,0.011l-13.084,0.011l0.031-15.196c0.004-2.211,0.012-4.424,0.011-6.634
		c-0.009-18.331-0.005-36.653-0.003-54.988l0.001-19.265L62.958,6.56L2.172,6.514l0.003,23.917
		c0.001,9.438-0.021,18.871-0.004,28.313c0.04,22.735-0.056,45.438,0.003,68.178c0.078,30.365-0.065,60.676-0.031,91.03
		l0.051,45.676l15.334,0.055c13.056,0.047,25.78,0.051,38.661,0.026L82.413,263.66z M385.849,160.578l19.773-0.099l9.186-0.046
		l18.354,0.063l10.985,0.037l-5.948-19.259c-2.762-8.945-5.552-17.864-8.39-26.798c-3.564-11.216-6.849-22.435-10.105-33.735
		l-4.2-14.575l-4.669,15.851c-1.628,5.529-3.281,11.046-4.971,16.55c-0.302,0.983-0.704,1.916-1.014,2.898
		c-3.817,12.097-7.752,24.15-11.626,36.193L385.849,160.578z"/>
	<path fill-rule="evenodd" clip-rule="evenodd" d="M591.359,263.695l13.621,0.007c17.609,0.009,35.093-0.002,52.681,0l14.168,0.003
		l0.076-23.505c0.02-6.071-0.019-12.125-0.002-18.215c0.026-9.833-0.017-19.581-0.004-29.405l0.017-13.453L691,179.035l13.478-0.065
		l0.973,1.777l39.104,75.07l4.229,7.892l17.863-0.003c18.613-0.003,37.219-0.01,55.821-0.001l21.299,0.01l-21.79-33.114
		c-14.594-22.179-29.256-44.332-43.721-66.56c1.375-0.937,2.747-1.701,4.107-2.396c2.737-1.399,51.463-24.887,38.167-92.411
		c-0.608-2.724-1.343-5.417-2.221-8.066c-1.211-3.656-2.734-7.201-4.543-10.589C792.02,6.507,717.974,6.688,712.289,6.611
		c-17.193-0.232-34.376-0.003-51.619-0.013c-23.021-0.013-45.747-0.276-69.054,0.201c-0.256,43.155-0.049,85.813-0.111,128.763
		c-0.031,21.48,0.015,42.87,0.001,64.338c-0.007,10.734-0.019,21.438,0.012,32.167c0.003,1.026,0,2.051-0.005,3.077L591.359,263.695
		z M699.09,124.98c9.354,0.07,18.561,0.284,27.37-3.488c9.458-4.05,12.065-15.77,12.09-25.309
		c0.025-9.616-0.98-21.483-11.254-26.013c-0.579-0.255-0.595-0.602-1.294-0.757c-0.61-0.136-0.947-0.315-1.426-0.456
		c-8.461-2.479-17.188-2.3-25.987-2.196c-2.545,0.03-5.055-0.023-7.561-0.021l-19.044,0.025l-0.09,15.41
		c-0.066,11.279,0.038,22.438,0.042,33.799l0.003,8.955l9.164,0.127C687.111,125.14,693.047,124.935,699.09,124.98z"/>
	<polygon fill-rule="evenodd" clip-rule="evenodd" points="1260.134,166.815 1260.134,263.7 1340.54,263.7 1340.54,6.557 
		1260.134,6.557 1260.134,101.03 1175.005,101.03 1175.005,6.557 1094.598,6.557 1094.598,263.7 1175.005,263.7 1175.005,166.815 	
		"/>
	<polygon fill-rule="evenodd" clip-rule="evenodd" points="1468.857,161.522 1573.22,161.522 1573.22,104.523 1468.857,104.523 
		1468.857,70.642 1595.427,70.642 1593.865,6.607 1424.479,6.607 1424.479,6.61 1388.371,6.61 1388.371,263.697 1429.374,263.697 
		1429.374,263.706 1598.76,263.706 1600.321,199.67 1468.857,199.67 	"/>
</g>
</svg>
